<?xml version="1.0" encoding="UTF-8"?>
<!DOCTYPE svg PUBLIC "-//W3C//DTD SVG 1.1//EN" "http://www.w3.org/Graphics/SVG/1.1/DTD/svg11.dtd">
<svg xmlns="http://www.w3.org/2000/svg" version="1.1" width="512px" height="512px" style="shape-rendering:geometricPrecision; text-rendering:geometricPrecision; image-rendering:optimizeQuality; fill-rule:evenodd; clip-rule:evenodd" xmlns:xlink="http://www.w3.org/1999/xlink">
<g><path style="opacity:1" fill="#043d57" d="M 436.5,200.5 C 447.78,213.448 459.78,225.781 472.5,237.5C 473.431,240.603 472.931,243.603 471,246.5C 464.909,254.363 459.076,262.363 453.5,270.5C 454.557,274.942 456.391,278.942 459,282.5C 468.797,284.185 478.631,285.685 488.5,287C 490.519,287.45 492.352,288.283 494,289.5C 495.641,308.743 495.975,328.077 495,347.5C 493.661,350.094 491.494,351.594 488.5,352C 479.167,353.333 469.833,354.667 460.5,356C 458.939,356.318 457.772,357.151 457,358.5C 454.95,362.302 453.95,366.302 454,370.5C 461.509,379.168 468.009,388.501 473.5,398.5C 473.075,402.585 471.075,405.585 467.5,407.5C 464.833,408.167 463.167,409.833 462.5,412.5C 461.167,414.5 459.5,416.167 457.5,417.5C 454.833,418.167 453.167,419.833 452.5,422.5C 445.5,427.5 439.5,433.5 434.5,440.5C 431.795,441.777 429.128,441.61 426.5,440C 418.5,434 410.5,428 402.5,422C 400.833,421.333 399.167,421.333 397.5,422C 394.213,423.304 391.213,424.97 388.5,427C 386.815,436.797 385.315,446.631 384,456.5C 383.55,458.519 382.717,460.352 381.5,462C 366.263,463.468 350.93,463.968 335.5,463.5C 335.666,472.839 335.5,482.173 335,491.5C 334.5,493.333 333.333,494.5 331.5,495C 226.753,495.995 122.086,495.662 17.5,494C 16.8742,493.25 16.3742,492.416 16,491.5C 15.3333,460.833 15.3333,430.167 16,399.5C 20.7328,372.125 34.8995,351.292 58.5,337C 83.8556,326.105 109.356,315.605 135,305.5C 135.667,301.833 135.667,298.167 135,294.5C 109.782,280.754 94.2822,259.754 88.5,231.5C 80.4931,231.666 72.4931,231.5 64.5,231C 56.3333,228.167 50.8333,222.667 48,214.5C 47.8333,208.167 47.6667,201.833 47.5,195.5C 43.8114,179.848 48.8114,168.182 62.5,160.5C 61.2694,115.791 78.9361,80.9579 115.5,56C 145.052,38.6308 176.385,34.6308 209.5,44C 262.447,64.4982 288.78,103.332 288.5,160.5C 295.62,163.785 300.453,169.118 303,176.5C 303.667,189.167 303.667,201.833 303,214.5C 300.453,221.882 295.62,227.215 288.5,230.5C 291.697,263.798 276.697,277.631 243.5,272C 235.835,281.331 226.669,288.831 216,294.5C 215.333,298.167 215.333,301.833 216,305.5C 236.988,314.328 258.154,322.662 279.5,330.5C 276.414,289.46 294.08,261.96 332.5,248C 371.192,239.993 400.025,253.16 419,287.5C 433.564,327.456 423.397,359.289 388.5,383C 370.576,391.99 351.909,394.324 332.5,390C 333.811,393.354 334.644,396.854 335,400.5C 335.5,416.163 335.667,431.83 335.5,447.5C 346.5,447.5 357.5,447.5 368.5,447.5C 369.338,438.134 370.504,428.801 372,419.5C 372.229,416.542 373.396,414.042 375.5,412C 383.075,409.586 390.408,406.586 397.5,403C 400.167,402.333 402.833,402.333 405.5,403C 413.667,409.167 421.833,415.333 430,421.5C 437.833,413.667 445.667,405.833 453.5,398C 447.546,390.59 441.713,383.09 436,375.5C 434.517,372.298 434.183,368.964 435,365.5C 438.646,357.71 442.146,349.877 445.5,342C 456.318,339.192 467.318,337.359 478.5,336.5C 478.5,325.167 478.5,313.833 478.5,302.5C 467.314,301.641 456.314,299.807 445.5,297C 442.163,289.153 438.663,281.32 435,273.5C 434.333,270.833 434.333,268.167 435,265.5C 441.167,257.333 447.333,249.167 453.5,241C 445.667,233.167 437.833,225.333 430,217.5C 421.833,223.667 413.667,229.833 405.5,236C 402.833,236.667 400.167,236.667 397.5,236C 390.081,232.083 382.414,228.75 374.5,226C 373.137,224.055 372.303,221.888 372,219.5C 370.504,210.199 369.338,200.866 368.5,191.5C 357.167,191.5 345.833,191.5 334.5,191.5C 333.726,201.253 332.392,210.919 330.5,220.5C 330,220.833 329.5,221.167 329,221.5C 323.807,220.639 318.64,219.639 313.5,218.5C 315.564,206.553 317.397,194.553 319,182.5C 319.45,180.481 320.283,178.648 321.5,177C 331.395,175.551 341.395,175.051 351.5,175.5C 351.833,157.488 351.5,139.488 350.5,121.5C 327.027,99.5959 321.193,73.5959 333,43.5C 340.28,28.382 351.78,18.0487 367.5,12.5C 370.63,12.6482 373.13,13.9816 375,16.5C 375.5,32.8299 375.667,49.1633 375.5,65.5C 380.942,66.7581 386.276,68.4248 391.5,70.5C 396.724,68.4248 402.058,66.7581 407.5,65.5C 407.333,49.1633 407.5,32.8299 408,16.5C 409.87,13.9816 412.37,12.6482 415.5,12.5C 437.086,20.9602 450.253,36.6269 455,59.5C 458.865,84.4121 451.365,105.079 432.5,121.5C 431.334,146.827 431.167,172.16 432,197.5C 433.878,198.053 435.378,199.053 436.5,200.5 Z M 174.5,55.5 C 220.528,58.2523 251.362,81.2523 267,124.5C 269.845,135.987 271.345,147.654 271.5,159.5C 268.833,159.5 266.167,159.5 263.5,159.5C 262.533,121.383 244.866,94.2167 210.5,78C 166.691,62.8215 130.525,73.3215 102,109.5C 91.8844,124.628 87.051,141.295 87.5,159.5C 84.8333,159.5 82.1667,159.5 79.5,159.5C 79.3512,114.601 99.3512,82.434 139.5,63C 150.94,58.7472 162.607,56.2472 174.5,55.5 Z M 205.5,155.5 C 210.217,162.389 215.55,168.889 221.5,175C 229.12,180.974 237.787,183.807 247.5,183.5C 247.77,197.863 247.27,212.196 246,226.5C 244.493,237.003 240.66,246.503 234.5,255C 214.836,255.5 195.169,255.667 175.5,255.5C 175.5,260.833 175.5,266.167 175.5,271.5C 189.837,271.333 204.171,271.5 218.5,272C 202.199,284.326 183.866,288.992 163.5,286C 126.67,276.837 106.836,253.337 104,215.5C 103.5,204.839 103.333,194.172 103.5,183.5C 122.836,183.667 142.17,183.5 161.5,183C 171.197,181.15 179.864,177.15 187.5,171C 193.758,166.052 199.758,160.885 205.5,155.5 Z M 262.5,231.5 C 265.5,231.5 268.5,231.5 271.5,231.5C 271.666,236.844 271.499,242.177 271,247.5C 269.301,253.365 265.301,256.031 259,255.5C 257.5,255.333 256,255.167 254.5,255C 258.264,247.542 260.93,239.709 262.5,231.5 Z M 151.5,300.5 C 163.629,303.379 175.962,304.212 188.5,303C 192.146,302.644 195.646,301.811 199,300.5C 201.673,314.855 196.839,325.689 184.5,333C 170.801,337.216 160.634,333.05 154,320.5C 152.058,313.979 151.225,307.313 151.5,300.5 Z"/></g>
<g><path style="opacity:1" fill="#fdfdfe" d="M 358.5,36.5 C 359.056,49.7289 359.889,63.0622 361,76.5C 369.804,80.7708 378.97,84.2708 388.5,87C 390.167,87.6667 391.833,87.6667 393.5,87C 403.281,84.0752 412.781,80.5752 422,76.5C 423.278,63.2357 423.945,49.9024 424,36.5C 442.426,56.1801 444.426,77.5134 430,100.5C 425.279,105.221 420.613,109.887 416,114.5C 415.833,145.839 415.333,177.172 414.5,208.5C 410.112,212.221 405.445,215.555 400.5,218.5C 399.5,185.507 399.167,152.507 399.5,119.5C 394.167,119.5 388.833,119.5 383.5,119.5C 383.667,139.836 383.5,160.169 383,180.5C 382.065,177.898 380.232,176.398 377.5,176C 374.183,175.502 370.85,175.335 367.5,175.5C 367.667,155.164 367.5,134.831 367,114.5C 361.356,109.188 356.023,103.521 351,97.5C 338.92,75.2251 341.42,54.8917 358.5,36.5 Z"/></g>
<g><path style="opacity:1" fill="#fdfdfd" d="M 164.5,87.5 C 200.297,84.9732 226.13,99.6398 242,131.5C 246.88,143.009 248.713,155.009 247.5,167.5C 238.958,167.146 232.124,163.48 227,156.5C 222.667,150.5 218.333,144.5 214,138.5C 210.547,135.231 206.714,134.731 202.5,137C 190.901,147.798 178.234,157.131 164.5,165C 162.122,165.511 159.788,166.178 157.5,167C 139.503,167.5 121.503,167.667 103.5,167.5C 103.114,124.905 123.448,98.238 164.5,87.5 Z"/></g>
<g><path style="opacity:1" fill="#fdfefe" d="M 68.5,175.5 C 74.8333,175.5 81.1667,175.5 87.5,175.5C 87.5,188.833 87.5,202.167 87.5,215.5C 81.1579,215.666 74.8246,215.5 68.5,215C 67.0692,214.535 65.9025,213.701 65,212.5C 63.4049,201.907 63.0716,191.24 64,180.5C 65.025,178.313 66.525,176.646 68.5,175.5 Z"/></g>
<g><path style="opacity:1" fill="#fefefe" d="M 263.5,175.5 C 270.589,175.116 277.589,175.616 284.5,177C 285.701,177.903 286.535,179.069 287,180.5C 287.667,190.167 287.667,199.833 287,209.5C 286.727,211.329 285.893,212.829 284.5,214C 277.589,215.384 270.589,215.884 263.5,215.5C 263.5,202.167 263.5,188.833 263.5,175.5 Z"/></g>
<g><path style="opacity:1" fill="#003754" d="M 127.5,199.5 C 132.833,199.5 138.167,199.5 143.5,199.5C 143.5,204.833 143.5,210.167 143.5,215.5C 138.167,215.5 132.833,215.5 127.5,215.5C 127.5,210.167 127.5,204.833 127.5,199.5 Z"/></g>
<g><path style="opacity:1" fill="#003754" d="M 207.5,199.5 C 212.833,199.5 218.167,199.5 223.5,199.5C 223.5,204.833 223.5,210.167 223.5,215.5C 218.167,215.5 212.833,215.5 207.5,215.5C 207.5,210.167 207.5,204.833 207.5,199.5 Z"/></g>
<g><path style="opacity:1" fill="#003754" d="M 343.5,207.5 C 348.833,207.5 354.167,207.5 359.5,207.5C 359.5,212.833 359.5,218.167 359.5,223.5C 354.167,223.5 348.833,223.5 343.5,223.5C 343.5,218.167 343.5,212.833 343.5,207.5 Z"/></g>
<g><path style="opacity:0.937" fill="#28c678" d="M 436.5,200.5 C 449.22,212.219 461.22,224.552 472.5,237.5C 459.78,225.781 447.78,213.448 436.5,200.5 Z"/></g>
<g><path style="opacity:1" fill="#114a5e" d="M 426.5,235.5 C 426.062,235.435 425.728,235.601 425.5,236C 429.439,239.429 432.772,243.263 435.5,247.5C 432.489,251.344 428.989,254.678 425,257.5C 421.046,254.549 417.379,251.216 414,247.5C 413.333,246.5 413.333,245.5 414,244.5C 417.167,241.333 420.333,238.167 423.5,235C 424.749,234.26 425.749,234.427 426.5,235.5 Z"/></g>
<g><path style="opacity:0.047" fill="#03bc34" d="M 426.5,235.5 C 429.797,238.296 432.964,241.296 436,244.5C 436.74,245.749 436.573,246.749 435.5,247.5C 432.772,243.263 429.439,239.429 425.5,236C 425.728,235.601 426.062,235.435 426.5,235.5 Z"/></g>
<g><path style="opacity:1" fill="#fdfdfe" d="M 343.5,262.5 C 378.817,261.554 400.317,278.221 408,312.5C 408.792,347.103 392.292,367.936 358.5,375C 346.039,376.635 334.372,374.301 323.5,368C 317.263,358.707 309.763,350.541 301,343.5C 289.028,310.958 297.862,285.791 327.5,268C 332.851,265.846 338.184,264.013 343.5,262.5 Z"/></g>
<g><path style="opacity:1" fill="#003754" d="M 447.5,311.5 C 452.833,311.5 458.167,311.5 463.5,311.5C 463.5,316.833 463.5,322.167 463.5,327.5C 458.167,327.5 452.833,327.5 447.5,327.5C 447.5,322.167 447.5,316.833 447.5,311.5 Z"/></g>
<g><path style="opacity:1" fill="#fefefe" d="M 135.5,322.5 C 136.376,322.369 137.043,322.702 137.5,323.5C 145.565,343.871 160.565,353.038 182.5,351C 198.395,347.437 208.895,337.937 214,322.5C 235.816,331.329 257.65,340.162 279.5,349C 299.612,359.393 312.446,375.559 318,397.5C 319.456,424.791 319.956,452.124 319.5,479.5C 303.5,479.5 287.5,479.5 271.5,479.5C 271.5,450.167 271.5,420.833 271.5,391.5C 266.167,391.5 260.833,391.5 255.5,391.5C 255.5,420.833 255.5,450.167 255.5,479.5C 202.167,479.5 148.833,479.5 95.5,479.5C 95.5,450.167 95.5,420.833 95.5,391.5C 90.1667,391.5 84.8333,391.5 79.5,391.5C 79.5,420.833 79.5,450.167 79.5,479.5C 63.5,479.5 47.5,479.5 31.5,479.5C 31.3334,453.831 31.5,428.165 32,402.5C 36.0357,379.92 47.869,362.753 67.5,351C 90.3709,341.724 113.038,332.224 135.5,322.5 Z"/></g>
<g><path style="opacity:1" fill="#0d475b" d="M 436.5,393.5 C 431.833,396.167 428.167,399.833 425.5,404.5C 421.263,401.772 417.429,398.439 414,394.5C 413.333,393.5 413.333,392.5 414,391.5C 417.379,387.784 421.046,384.451 425,381.5C 429.72,384.718 433.553,388.718 436.5,393.5 Z"/></g>
<g><path style="opacity:0.047" fill="#01c636" d="M 436.5,393.5 C 433.167,397.5 429.5,401.167 425.5,404.5C 428.167,399.833 431.833,396.167 436.5,393.5 Z"/></g>
<g><path style="opacity:0.216" fill="#27c984" d="M 467.5,407.5 C 466.167,409.5 464.5,411.167 462.5,412.5C 463.167,409.833 464.833,408.167 467.5,407.5 Z"/></g>
<g><path style="opacity:1" fill="#003754" d="M 343.5,415.5 C 348.833,415.5 354.167,415.5 359.5,415.5C 359.5,420.833 359.5,426.167 359.5,431.5C 354.167,431.5 348.833,431.5 343.5,431.5C 343.5,426.167 343.5,420.833 343.5,415.5 Z"/></g>
<g><path style="opacity:0.216" fill="#27c984" d="M 457.5,417.5 C 456.167,419.5 454.5,421.167 452.5,422.5C 453.167,419.833 454.833,418.167 457.5,417.5 Z"/></g>
<g><path style="opacity:0.216" fill="#19c29a" d="M 452.5,422.5 C 446.833,428.833 440.833,434.833 434.5,440.5C 439.5,433.5 445.5,427.5 452.5,422.5 Z"/></g>
</svg>
