<?xml version="1.0" encoding="UTF-8"?>
<!DOCTYPE svg PUBLIC "-//W3C//DTD SVG 1.1//EN" "http://www.w3.org/Graphics/SVG/1.1/DTD/svg11.dtd">
<svg xmlns="http://www.w3.org/2000/svg" version="1.1" width="48px" height="48px" style="shape-rendering:geometricPrecision; text-rendering:geometricPrecision; image-rendering:optimizeQuality; fill-rule:evenodd; clip-rule:evenodd" xmlns:xlink="http://www.w3.org/1999/xlink">
<g><path style="opacity:1" fill="#4a79b0" d="M 36.5,16.5 C 36.5,16.1667 36.5,15.8333 36.5,15.5C 36.238,14.0222 36.5713,12.6888 37.5,11.5C 38.8333,14.8333 38.8333,18.1667 37.5,21.5C 36.5481,19.9547 36.2148,18.288 36.5,16.5 Z"/></g>
<g><path style="opacity:0.728" fill="#080909" d="M 35.5,10.5 C 35.2155,12.4147 35.5489,14.0813 36.5,15.5C 36.5,15.8333 36.5,16.1667 36.5,16.5C 36.1667,16.5 35.8333,16.5 35.5,16.5C 34.3509,16.7911 33.6842,17.6244 33.5,19C 33.6842,20.3756 34.3509,21.2089 35.5,21.5C 35.5,21.8333 35.5,22.1667 35.5,22.5C 28.5,22.5 21.5,22.5 14.5,22.5C 14.5,22.1667 14.5,21.8333 14.5,21.5C 15.8333,21.5 17.1667,21.5 18.5,21.5C 18.5,20.5 18.5,19.5 18.5,18.5C 17.1667,18.5 15.8333,18.5 14.5,18.5C 14.1667,18.5 13.8333,18.5 13.5,18.5C 10.8333,18.5 8.16667,18.5 5.5,18.5C 5.20001,13.9014 5.53335,9.40142 6.5,5C 12.2182,4.78911 17.8848,4.28911 23.5,3.5C 25.4342,3.90054 26.9342,4.90054 28,6.5C 27.9828,10.4754 27.8161,14.4754 27.5,18.5C 25.4159,19.2483 23.4159,19.2483 21.5,18.5C 20.6143,19.325 20.281,20.325 20.5,21.5C 24.1667,21.5 27.8333,21.5 31.5,21.5C 31.3398,19.8008 31.5065,18.1341 32,16.5C 33.7757,14.7894 34.9424,12.7894 35.5,10.5 Z"/></g>
<g><path style="opacity:1" fill="#f5f5f5" d="M 7.5,5.5 C 13.5092,5.33385 19.5092,5.50051 25.5,6C 26.4601,9.72998 26.7935,13.5633 26.5,17.5C 19.8333,17.5 13.1667,17.5 6.5,17.5C 6.23674,13.3998 6.57007,9.39977 7.5,5.5 Z"/></g>
<g><path style="opacity:1" fill="#2f9968" d="M 35.5,16.5 C 35.5,18.1667 35.5,19.8333 35.5,21.5C 34.3509,21.2089 33.6842,20.3756 33.5,19C 33.6842,17.6244 34.3509,16.7911 35.5,16.5 Z"/></g>
<g><path style="opacity:0.804" fill="#161617" d="M 35.5,10.5 C 38.2776,10.0217 40.2776,11.0217 41.5,13.5C 42.48,16.0865 42.8134,18.7531 42.5,21.5C 43.5,21.5 44.5,21.5 45.5,21.5C 43.9949,28.376 43.1616,35.376 43,42.5C 41.6439,43.3802 40.1439,43.7135 38.5,43.5C 34.9581,43.8128 31.6248,43.4794 28.5,42.5C 33.0986,42.8 37.5986,42.4667 42,41.5C 41.648,36.067 41.8147,30.7337 42.5,25.5C 37.8333,25.5 33.1667,25.5 28.5,25.5C 20.8333,25.5 13.1667,25.5 5.5,25.5C 5.5,31.1667 5.5,36.8333 5.5,42.5C 4.83333,36.8333 4.16667,31.1667 3.5,25.5C 1.89578,24.713 1.22911,23.3797 1.5,21.5C 5.5,21.5 9.5,21.5 13.5,21.5C 13.5,20.5 13.5,19.5 13.5,18.5C 13.8333,18.5 14.1667,18.5 14.5,18.5C 14.5,19.5 14.5,20.5 14.5,21.5C 14.5,21.8333 14.5,22.1667 14.5,22.5C 10.774,22.1774 7.10728,22.5108 3.5,23.5C 17.1545,24.6661 30.8212,24.8327 44.5,24C 41.7216,22.6081 38.7216,22.1081 35.5,22.5C 35.5,22.1667 35.5,21.8333 35.5,21.5C 35.5,19.8333 35.5,18.1667 35.5,16.5C 35.8333,16.5 36.1667,16.5 36.5,16.5C 36.2148,18.288 36.5481,19.9547 37.5,21.5C 38.8333,18.1667 38.8333,14.8333 37.5,11.5C 36.5713,12.6888 36.238,14.0222 36.5,15.5C 35.5489,14.0813 35.2155,12.4147 35.5,10.5 Z"/></g>
<g><path style="opacity:1" fill="#b2b2b2" d="M 14.5,22.5 C 21.5,22.5 28.5,22.5 35.5,22.5C 38.7216,22.1081 41.7216,22.6081 44.5,24C 30.8212,24.8327 17.1545,24.6661 3.5,23.5C 7.10728,22.5108 10.774,22.1774 14.5,22.5 Z"/></g>
<g><path style="opacity:1" fill="#fafafa" d="M 14.5,18.5 C 15.8333,18.5 17.1667,18.5 18.5,18.5C 18.5,19.5 18.5,20.5 18.5,21.5C 17.1667,21.5 15.8333,21.5 14.5,21.5C 14.5,20.5 14.5,19.5 14.5,18.5 Z"/></g>
<g><path style="opacity:1" fill="#c9c9c9" d="M 39.5,14.5 C 40.7251,15.1522 41.3917,16.3189 41.5,18C 41.1667,19.1667 40.8333,20.3333 40.5,21.5C 39.5258,19.2573 39.1924,16.924 39.5,14.5 Z"/></g>
<g><path style="opacity:1" fill="#9e9e9e" d="M 28.5,25.5 C 28.5,28.1667 28.5,30.8333 28.5,33.5C 27.8333,32.1667 27.1667,30.8333 26.5,29.5C 26.5,28.5 26.5,27.5 26.5,26.5C 20.5,26.5 14.5,26.5 8.5,26.5C 8.5,27.5 8.5,28.5 8.5,29.5C 7.67618,33.3123 7.17618,37.3123 7,41.5C 6.61742,42.056 6.11742,42.3893 5.5,42.5C 5.5,36.8333 5.5,31.1667 5.5,25.5C 13.1667,25.5 20.8333,25.5 28.5,25.5 Z"/></g>
<g><path style="opacity:1" fill="#e7e7e7" d="M 28.5,25.5 C 33.1667,25.5 37.8333,25.5 42.5,25.5C 41.8147,30.7337 41.648,36.067 42,41.5C 37.5986,42.4667 33.0986,42.8 28.5,42.5C 27.5269,40.0521 27.1936,37.3854 27.5,34.5C 31.5138,34.6655 35.5138,34.4988 39.5,34C 35.8484,33.5014 32.1817,33.3347 28.5,33.5C 28.5,30.8333 28.5,28.1667 28.5,25.5 Z"/></g>
<g><path style="opacity:1" fill="#fefffe" d="M 26.5,29.5 C 20.5,29.5 14.5,29.5 8.5,29.5C 8.5,28.5 8.5,27.5 8.5,26.5C 14.5,26.5 20.5,26.5 26.5,26.5C 26.5,27.5 26.5,28.5 26.5,29.5 Z"/></g>
<g><path style="opacity:0.328" fill="#080808" d="M 3.5,25.5 C 4.16667,31.1667 4.83333,36.8333 5.5,42.5C 6.11742,42.3893 6.61742,42.056 7,41.5C 7.17618,37.3123 7.67618,33.3123 8.5,29.5C 14.5,29.5 20.5,29.5 26.5,29.5C 27.1667,30.8333 27.8333,32.1667 28.5,33.5C 32.1817,33.3347 35.8484,33.5014 39.5,34C 35.5138,34.4988 31.5138,34.6655 27.5,34.5C 27.1936,37.3854 27.5269,40.0521 28.5,42.5C 31.6248,43.4794 34.9581,43.8128 38.5,43.5C 35.0242,44.6433 31.3575,44.8099 27.5,44C 26.5363,39.9341 26.203,35.7675 26.5,31.5C 20.5,31.5 14.5,31.5 8.5,31.5C 8.5,35.5 8.5,39.5 8.5,43.5C 6.83333,43.5 5.16667,43.5 3.5,43.5C 3.5,37.5 3.5,31.5 3.5,25.5 Z"/></g>
</svg>
