<?xml version="1.0" encoding="UTF-8"?>
<!DOCTYPE svg PUBLIC "-//W3C//DTD SVG 1.1//EN" "http://www.w3.org/Graphics/SVG/1.1/DTD/svg11.dtd">
<svg xmlns="http://www.w3.org/2000/svg" version="1.1" width="512px" height="504px" style="shape-rendering:geometricPrecision; text-rendering:geometricPrecision; image-rendering:optimizeQuality; fill-rule:evenodd; clip-rule:evenodd" xmlns:xlink="http://www.w3.org/1999/xlink">
<g><path style="opacity:1" fill="#f6f6f6" d="M 129.5,-0.5 C 213.5,-0.5 297.5,-0.5 381.5,-0.5C 385.232,1.40474 387.732,4.40474 389,8.5C 389.5,16.1594 389.666,23.8261 389.5,31.5C 410.836,31.3334 432.169,31.5 453.5,32C 460.667,33.8333 465.167,38.3333 467,45.5C 467.667,94.8333 467.667,144.167 467,193.5C 464.833,200.333 460.333,204.833 453.5,207C 432.169,207.5 410.836,207.667 389.5,207.5C 389.5,213.833 389.5,220.167 389.5,226.5C 428.168,226.333 466.835,226.5 505.5,227C 508.023,228.36 510.023,230.193 511.5,232.5C 511.5,321.833 511.5,411.167 511.5,500.5C 510.167,501.167 509.167,502.167 508.5,503.5C 339.833,503.5 171.167,503.5 2.5,503.5C 1.83333,502.167 0.833333,501.167 -0.5,500.5C -0.5,411.167 -0.5,321.833 -0.5,232.5C 0.977392,230.193 2.97739,228.36 5.5,227C 44.1652,226.5 82.8319,226.333 121.5,226.5C 121.5,220.167 121.5,213.833 121.5,207.5C 99.8308,207.667 78.1641,207.5 56.5,207C 49.6667,204.833 45.1667,200.333 43,193.5C 42.3333,144.167 42.3333,94.8333 43,45.5C 44.8333,38.3333 49.3333,33.8333 56.5,32C 78.1641,31.5 99.8308,31.3334 121.5,31.5C 121.334,23.8261 121.5,16.1594 122,8.5C 123.268,4.40474 125.768,1.40474 129.5,-0.5 Z M 136.5,13.5 C 215.833,13.5 295.167,13.5 374.5,13.5C 374.5,19.5 374.5,25.5 374.5,31.5C 295.167,31.5 215.833,31.5 136.5,31.5C 136.5,25.5 136.5,19.5 136.5,13.5 Z M 59.5,45.5 C 190.167,45.3333 320.834,45.5 451.5,46C 452,46.5 452.5,47 453,47.5C 453.667,95.1667 453.667,142.833 453,190.5C 452.167,191.333 451.333,192.167 450.5,193C 320.5,193.667 190.5,193.667 60.5,193C 59.6667,192.167 58.8333,191.333 58,190.5C 57.3333,142.833 57.3333,95.1667 58,47.5C 58.7172,46.9558 59.2172,46.2891 59.5,45.5 Z M 117.5,100.5 C 124.559,99.7586 128.726,102.759 130,109.5C 130.667,117.167 130.667,124.833 130,132.5C 129.654,134.848 128.487,136.681 126.5,138C 122.833,138.667 119.167,138.667 115.5,138C 113.951,136.786 112.785,135.286 112,133.5C 109.675,123.355 110.008,113.355 113,103.5C 114.409,102.219 115.909,101.219 117.5,100.5 Z M 13.5,240.5 C 49.5,240.5 85.5,240.5 121.5,240.5C 121.5,323.5 121.5,406.5 121.5,489.5C 85.5,489.5 49.5,489.5 13.5,489.5C 13.5,406.5 13.5,323.5 13.5,240.5 Z M 389.5,240.5 C 425.5,240.5 461.5,240.5 497.5,240.5C 497.5,323.5 497.5,406.5 497.5,489.5C 461.5,489.5 425.5,489.5 389.5,489.5C 389.5,406.5 389.5,323.5 389.5,240.5 Z M 136.5,207.5 C 215.833,207.5 295.167,207.5 374.5,207.5C 374.5,301.5 374.5,395.5 374.5,489.5C 295.167,489.5 215.833,489.5 136.5,489.5C 136.5,395.5 136.5,301.5 136.5,207.5 Z"/></g>
<g><path style="opacity:1" fill="#f3f3f3" d="M 99.5,149.5 C 99.0269,148.094 98.0269,147.427 96.5,147.5C 89.5935,139.752 86.2601,130.586 86.5,120C 87.2338,115.192 88.0671,110.359 89,105.5C 90.0859,101.654 91.9193,98.3203 94.5,95.5C 95.9063,95.0269 96.573,94.0269 96.5,92.5C 104.893,84.7267 114.893,81.5601 126.5,83C 140.623,84.3065 149.457,91.8065 153,105.5C 155.816,118.457 154.149,130.79 148,142.5C 136.962,154.637 123.462,158.471 107.5,154C 104.316,153.246 101.649,151.746 99.5,149.5 Z M 117.5,100.5 C 115.909,101.219 114.409,102.219 113,103.5C 110.008,113.355 109.675,123.355 112,133.5C 112.785,135.286 113.951,136.786 115.5,138C 119.167,138.667 122.833,138.667 126.5,138C 128.487,136.681 129.654,134.848 130,132.5C 130.667,124.833 130.667,117.167 130,109.5C 128.726,102.759 124.559,99.7586 117.5,100.5 Z"/></g>
<g><path style="opacity:1" fill="#f0f0f0" d="M 341.5,82.5 C 347.908,82.7593 354.241,83.5926 360.5,85C 361.578,85.6739 362.245,86.6739 362.5,88C 361.669,93.4954 360.336,98.8287 358.5,104C 337.937,96.5534 329.437,103.72 333,125.5C 334.461,133.298 339.128,136.965 347,136.5C 350.973,136.567 354.806,135.901 358.5,134.5C 359.086,134.709 359.586,135.043 360,135.5C 360.733,141.6 360.233,147.6 358.5,153.5C 345.7,156.993 333.366,155.826 321.5,150C 313.497,143.827 309.33,135.661 309,125.5C 307.619,113.757 310.286,103.091 317,93.5C 323.897,86.8196 332.064,83.153 341.5,82.5 Z"/></g>
<g><path style="opacity:1" fill="#f5f5f5" d="M 185.5,138.5 C 185.5,143.5 185.5,148.5 185.5,153.5C 178.5,153.5 171.5,153.5 164.5,153.5C 164.984,130.517 164.984,107.517 164.5,84.5C 180.17,84.3334 195.837,84.5001 211.5,85C 212.351,90.6917 212.018,96.3584 210.5,102C 202.559,101.6 194.559,101.433 186.5,101.5C 186.5,105.5 186.5,109.5 186.5,113.5C 192.827,112.818 199.161,112.652 205.5,113C 206.167,113.667 206.833,114.333 207.5,115C 206.808,119.801 206.142,124.635 205.5,129.5C 198.866,130.497 192.2,130.83 185.5,130.5C 185.5,133.167 185.5,135.833 185.5,138.5 Z"/></g>
<g><path style="opacity:1" fill="#f5f5f5" d="M 241.5,153.5 C 234.5,153.5 227.5,153.5 220.5,153.5C 220.5,149.833 220.5,146.167 220.5,142.5C 220.167,123.167 219.833,103.833 219.5,84.5C 235.5,84.5 251.5,84.5 267.5,84.5C 267.407,90.5164 267.074,96.5164 266.5,102.5C 258.2,101.629 249.867,101.295 241.5,101.5C 241.5,105.5 241.5,109.5 241.5,113.5C 248.186,112.608 254.853,112.608 261.5,113.5C 261.791,119.085 261.791,124.752 261.5,130.5C 254.492,130.334 247.492,130.5 240.5,131C 241.481,138.413 241.814,145.913 241.5,153.5 Z"/></g>
<g><path style="opacity:1" fill="#f4f4f4" d="M 296.5,151.5 C 289.913,153.461 282.913,154.128 275.5,153.5C 275.5,151.167 275.5,148.833 275.5,146.5C 275.581,125.825 275.248,105.158 274.5,84.5C 282.167,84.5 289.833,84.5 297.5,84.5C 296.709,106.824 296.376,129.157 296.5,151.5 Z"/></g>
<g><path style="opacity:1" fill="#f2f2f2" d="M 372.5,84.5 C 389.5,84.5 406.5,84.5 423.5,84.5C 423.575,90.5293 423.241,96.5293 422.5,102.5C 413.199,101.613 403.866,101.279 394.5,101.5C 394.5,104.5 394.5,107.5 394.5,110.5C 401.841,110.334 409.174,110.5 416.5,111C 417.022,111.561 417.355,112.228 417.5,113C 416.883,118.047 416.217,123.047 415.5,128C 408.212,127.652 400.879,127.485 393.5,127.5C 393.5,130.5 393.5,133.5 393.5,136.5C 403.172,136.334 412.839,136.5 422.5,137C 423.059,137.725 423.392,138.558 423.5,139.5C 422.914,144.389 422.248,149.223 421.5,154C 405.17,154.5 388.837,154.667 372.5,154.5C 373.001,131.183 373.001,107.85 372.5,84.5 Z"/></g>
<g><path style="opacity:0.871" fill="#7c7c7c" d="M 96.5,92.5 C 96.573,94.0269 95.9063,95.0269 94.5,95.5C 94.427,93.9731 95.0937,92.9731 96.5,92.5 Z"/></g>
<g><path style="opacity:0.871" fill="#7c7c7c" d="M 96.5,147.5 C 98.0269,147.427 99.0269,148.094 99.5,149.5C 97.9731,149.573 96.9731,148.906 96.5,147.5 Z"/></g>
<g><path style="opacity:0.427" fill="#696969" d="M 185.5,138.5 C 186.488,143.64 186.821,148.974 186.5,154.5C 178.981,154.825 171.648,154.492 164.5,153.5C 171.5,153.5 178.5,153.5 185.5,153.5C 185.5,148.5 185.5,143.5 185.5,138.5 Z"/></g>
<g><path style="opacity:0.427" fill="#6a6a6a" d="M 220.5,142.5 C 220.5,146.167 220.5,149.833 220.5,153.5C 227.5,153.5 234.5,153.5 241.5,153.5C 234.352,154.492 227.019,154.825 219.5,154.5C 219.183,150.298 219.517,146.298 220.5,142.5 Z"/></g>
<g><path style="opacity:0.427" fill="#595959" d="M 275.5,146.5 C 275.5,148.833 275.5,151.167 275.5,153.5C 282.913,154.128 289.913,153.461 296.5,151.5C 297.404,152.209 297.737,153.209 297.5,154.5C 289.833,154.5 282.167,154.5 274.5,154.5C 274.194,151.615 274.527,148.948 275.5,146.5 Z"/></g>
<g><path style="opacity:1" fill="#f6f6f6" d="M 92.5,317.5 C 75.5,317.5 58.5,317.5 41.5,317.5C 41.5,309.833 41.5,302.167 41.5,294.5C 57.9949,293.338 74.6616,293.172 91.5,294C 92.4817,301.747 92.815,309.58 92.5,317.5 Z"/></g>
<g><path style="opacity:1" fill="#eeeeee" d="M 418.5,293.5 C 435.17,293.333 451.837,293.5 468.5,294C 469.833,302 469.833,310 468.5,318C 451.837,318.5 435.17,318.667 418.5,318.5C 418.5,310.167 418.5,301.833 418.5,293.5 Z"/></g>
<g><path style="opacity:0.584" fill="#838383" d="M 41.5,294.5 C 41.5,302.167 41.5,309.833 41.5,317.5C 58.5,317.5 75.5,317.5 92.5,317.5C 75.3414,318.497 58.008,318.83 40.5,318.5C 40.1743,310.316 40.5076,302.316 41.5,294.5 Z"/></g>
<g><path style="opacity:1" fill="#f6f6f6" d="M 92.5,371.5 C 75.5,371.5 58.5,371.5 41.5,371.5C 41.5,363.833 41.5,356.167 41.5,348.5C 58.3251,347.503 75.3251,347.17 92.5,347.5C 92.5,355.5 92.5,363.5 92.5,371.5 Z"/></g>
<g><path style="opacity:1" fill="#eeeeee" d="M 418.5,347.5 C 435.17,347.333 451.837,347.5 468.5,348C 469.833,356 469.833,364 468.5,372C 451.837,372.5 435.17,372.667 418.5,372.5C 418.5,364.167 418.5,355.833 418.5,347.5 Z"/></g>
<g><path style="opacity:0.584" fill="#7e7e7e" d="M 41.5,348.5 C 41.5,356.167 41.5,363.833 41.5,371.5C 58.5,371.5 75.5,371.5 92.5,371.5C 75.3414,372.497 58.008,372.83 40.5,372.5C 40.1743,364.316 40.5076,356.316 41.5,348.5 Z"/></g>
<g><path style="opacity:1" fill="#eeeeee" d="M 41.5,401.5 C 58.5,401.5 75.5,401.5 92.5,401.5C 92.5,409.833 92.5,418.167 92.5,426.5C 75.4967,426.667 58.4967,426.5 41.5,426C 40.1811,417.833 40.1811,409.667 41.5,401.5 Z"/></g>
<g><path style="opacity:1" fill="#eeeeee" d="M 418.5,401.5 C 435.17,401.333 451.837,401.5 468.5,402C 469.833,410 469.833,418 468.5,426C 451.837,426.5 435.17,426.667 418.5,426.5C 418.5,418.167 418.5,409.833 418.5,401.5 Z"/></g>
<g><path style="opacity:0.871" fill="#6d6d6d" d="M 136.5,207.5 C 136.5,301.5 136.5,395.5 136.5,489.5C 215.833,489.5 295.167,489.5 374.5,489.5C 374.5,395.5 374.5,301.5 374.5,207.5C 375.499,301.665 375.833,395.999 375.5,490.5C 295.5,490.5 215.5,490.5 135.5,490.5C 135.167,395.999 135.501,301.665 136.5,207.5 Z M 136.5,207.5 C 215.833,207.5 295.167,207.5 374.5,207.5C 374.5,301.5 374.5,395.5 374.5,489.5C 295.167,489.5 215.833,489.5 136.5,489.5C 136.5,395.5 136.5,301.5 136.5,207.5 Z"/></g>
<g><path style="opacity:1" fill="#f2f2f2" d="M 303.5,401.5 C 317.504,401.333 331.504,401.5 345.5,402C 346.656,415.758 346.823,429.592 346,443.5C 331.908,444.656 317.742,444.823 303.5,444C 302.175,429.833 302.175,415.667 303.5,401.5 Z"/></g>
<g><path style="opacity:1" fill="#f2f2f2" d="M 234.5,401.5 C 248.504,401.333 262.504,401.5 276.5,402C 277.656,415.758 277.823,429.592 277,443.5C 262.908,444.656 248.742,444.823 234.5,444C 233.175,429.833 233.175,415.667 234.5,401.5 Z"/></g>
<g><path style="opacity:1" fill="#f2f2f2" d="M 165.5,401.5 C 179.516,401.167 193.516,401.501 207.5,402.5C 208.648,416.121 208.815,429.788 208,443.5C 193.908,444.656 179.742,444.823 165.5,444C 164.175,429.833 164.175,415.667 165.5,401.5 Z"/></g>
<g><path style="opacity:1" fill="#f2f2f2" d="M 303.5,324.5 C 317.504,324.333 331.504,324.5 345.5,325C 346.49,339.088 346.824,353.255 346.5,367.5C 332.163,367.667 317.829,367.5 303.5,367C 302.175,352.833 302.175,338.667 303.5,324.5 Z"/></g>
<g><path style="opacity:1" fill="#f3f3f3" d="M 234.5,324.5 C 248.504,324.333 262.504,324.5 276.5,325C 277.656,338.758 277.823,352.592 277,366.5C 262.908,367.656 248.742,367.823 234.5,367C 233.175,352.833 233.175,338.667 234.5,324.5 Z"/></g>
<g><path style="opacity:1" fill="#f2f2f2" d="M 165.5,324.5 C 179.504,324.333 193.504,324.5 207.5,325C 208.158,331.923 208.491,338.923 208.5,346C 208.491,353.077 208.158,360.077 207.5,367C 193.171,367.5 178.837,367.667 164.5,367.5C 164.184,353.088 164.518,338.755 165.5,324.5 Z"/></g>
<g><path style="opacity:1" fill="#f2f2f2" d="M 303.5,246.5 C 317.504,246.333 331.504,246.5 345.5,247C 346.49,261.088 346.824,275.255 346.5,289.5C 332.163,289.667 317.829,289.5 303.5,289C 302.175,274.833 302.175,260.667 303.5,246.5 Z"/></g>
<g><path style="opacity:1" fill="#f3f3f3" d="M 234.5,246.5 C 248.504,246.333 262.504,246.5 276.5,247C 277.656,260.758 277.823,274.592 277,288.5C 262.908,289.656 248.742,289.823 234.5,289C 233.175,274.833 233.175,260.667 234.5,246.5 Z"/></g>
<g><path style="opacity:1" fill="#f2f2f2" d="M 165.5,246.5 C 179.504,246.333 193.504,246.5 207.5,247C 208.158,253.923 208.491,260.923 208.5,268C 208.491,275.077 208.158,282.077 207.5,289C 193.171,289.5 178.837,289.667 164.5,289.5C 164.184,275.088 164.518,260.755 165.5,246.5 Z"/></g>
</svg>
